<?xml version="1.0" encoding="UTF-8"?>
<!DOCTYPE svg PUBLIC "-//W3C//DTD SVG 1.1//EN" "http://www.w3.org/Graphics/SVG/1.1/DTD/svg11.dtd">
<svg xmlns="http://www.w3.org/2000/svg" version="1.1" width="2400px" height="2453px" style="shape-rendering:geometricPrecision; text-rendering:geometricPrecision; image-rendering:optimizeQuality; fill-rule:evenodd; clip-rule:evenodd" xmlns:xlink="http://www.w3.org/1999/xlink">
<g><path style="opacity:0.994" fill="#000000" d="M -0.5,-0.5 C 238.167,-0.5 476.833,-0.5 715.5,-0.5C 921.42,299.935 1127.59,600.268 1334,900.5C 1592.38,600.294 1850.54,299.961 2108.5,-0.5C 2179.5,-0.5 2250.5,-0.5 2321.5,-0.5C 2024.2,345.915 1726.53,692.082 1428.5,1038C 1752.03,1509.01 2075.7,1979.85 2399.5,2450.5C 2399.5,2451.17 2399.5,2451.83 2399.5,2452.5C 2161.17,2452.5 1922.83,2452.5 1684.5,2452.5C 1466.53,2135.52 1248.53,1818.52 1030.5,1501.5C 757.069,1817.92 484.402,2134.92 212.5,2452.5C 141.5,2452.5 70.5,2452.5 -0.5,2452.5C -0.5,2451.83 -0.5,2451.17 -0.5,2450.5C 311.842,2088.33 623.842,1725.83 935.5,1363C 623.854,908.857 311.854,455.023 -0.5,1.5C -0.5,0.833333 -0.5,0.166667 -0.5,-0.5 Z M 288.5,160.5 C 396.333,159.334 504.333,159.167 612.5,160C 613,160.5 613.5,161 614,161.5C 1111.8,874.262 1609.96,1586.76 2108.5,2299C 2000.5,2299.67 1892.5,2299.67 1784.5,2299C 1784,2298.5 1783.5,2298 1783,2297.5C 1285.36,1584.71 787.193,872.377 288.5,160.5 Z"/></g>
</svg>
